<?xml version="1.0" standalone="no"?>
<!DOCTYPE svg PUBLIC "-//W3C//DTD SVG 1.1//EN" "http://www.w3.org/Graphics/SVG/1.1/DTD/svg11.dtd" >
<svg xmlns="http://www.w3.org/2000/svg">
<metadata>Generated by IcoMoon</metadata>
<defs>
<font id="icomoon" horiz-adv-x="1024">
<font-face units-per-em="1024" ascent="960" descent="-64" />
<missing-glyph horiz-adv-x="1024" />
<glyph unicode="&#x20;" horiz-adv-x="512" d="" />
<glyph unicode="&#xe900;" glyph-name="garbage" d="M938.947 812.632h-213.053v34.737c0 62.105-50.526 112.632-112.632 112.632h-202.526c-62.105 0-112.632-50.526-112.632-112.632v-34.737h-213.053c-15.789 0-28.421-12.632-28.421-28.421s12.632-28.421 28.421-28.421h51.368v-667.789c0-83.789 68.211-152 152-152h447.158c83.789 0 152 68.211 152 152v667.789h51.368c15.789 0 28.421 12.632 28.421 28.421s-12.632 28.421-28.421 28.421zM354.947 847.368c0 30.737 25.053 55.789 55.789 55.789h202.526c30.737 0 55.789-25.053 55.789-55.789v-34.737h-314.105v34.737zM830.737 88c0-52.421-42.737-95.158-95.158-95.158h-447.158c-52.421 0-95.158 42.737-95.158 95.158v667.789h637.684v-667.789h-0.211zM512 94.737c15.789 0 28.421 12.632 28.421 28.421v502.316c0 15.789-12.632 28.421-28.421 28.421s-28.421-12.632-28.421-28.421v-502.105c0-15.789 12.632-28.632 28.421-28.632zM326.526 126.105c15.789 0 28.421 12.632 28.421 28.421v439.789c0 15.789-12.632 28.421-28.421 28.421s-28.421-12.632-28.421-28.421v-439.789c0-15.789 12.842-28.421 28.421-28.421zM697.474 126.105c15.789 0 28.421 12.632 28.421 28.421v439.789c0 15.789-12.632 28.421-28.421 28.421s-28.421-12.632-28.421-28.421v-439.789c0-15.789 12.632-28.421 28.421-28.421z" />
<glyph unicode="&#xe901;" glyph-name="process-arrows" d="M896 448v-64c0-35.264-28.736-64-64-64h-448.128l0.128 128-256-192 256-192-0.128 128h448.128c105.888 0 192 86.24 192 192v64h-128zM128 512c0 35.36 28.736 64 64 64h448v-128l255.744 192-255.744 192v-128h-448c-105.888 0-192-86.016-192-192v-64h128v64z" />
<glyph unicode="&#xe902;" glyph-name="music-note-with-loop-circular-arrows-around" d="M400.112-19.628c1.777-0.162 3.539-0.273 5.297-0.273 24.766 0 46.090 18.692 48.796 43.898 2.881 26.979-16.657 51.2-43.629 54.075-163.295 17.503-301.218 186.189-301.218 368.407 0 168.374 117.859 324.938 264.579 361.592v-33.194c0-18.914 10.85-23.408 24.209-10.032l102.26 69.497c13.378 13.378 13.378 35.058 0 48.443l-102.258 69.512c-13.378 13.378-24.209 8.885-24.209-10.027v-33.602c-199.223-36.632-362.826-241.72-362.826-462.188 0-230.046 178.126-443.515 389-466.109zM623.871 912.593c-26.755 2.683-51.183-16.635-54.067-43.629-2.875-26.972 16.64-51.181 43.625-54.069 163.278-17.49 301.203-186.195 301.203-368.413 0-170.544-120.832-329.209-270.194-363.179v37.803c0 18.908-10.837 23.419-24.204 10.040l-102.258-69.506c-13.378-13.378-13.378-35.058 0-48.437l102.258-69.506c13.378-13.378 24.204-8.874 24.204 10.038v29.486c201.75 33.732 368.452 240.727 368.452 463.258-0.017 230.055-178.145 443.511-389.019 466.113zM782.519 649.323h12.392l12.377 0.688zM774.217 627.801c-15.2 0-41.496 11.584-87.139 51.739-31.541 27.748-67.035 37.57-101.493 37.57-83.384 0-160.628-57.469-160.628-57.469v-278.831c-7.146 1.884-14.67 2.8-22.417 2.8-29.977 0-63.195-13.857-89.766-40.432-45.37-45.372-54.011-110.325-19.267-145.048 14.369-14.378 33.901-21.319 55.073-21.319 30.029 0 63.383 13.968 89.988 40.577 24.916 24.916 38.292 55.632 39.954 84.108l0.421 0.034v10.982c-0.017 0.316 0.017 0.609 0 0.916v312.527c8.135 4.536 18.393 7.253 31.321 7.253 23.404 0 55.56-8.88 99.671-31.985 48.922-25.625 84.93-35.176 111.42-35.176 78.169 0 73.553 83.292 73.553 83.292s0.002-21.539-20.691-21.539z" />
<glyph unicode="&#xe903;" glyph-name="pause" d="M432 640.017c-26.529 0-48.001-21.504-48.001-48.001v-288.001c0-26.529 21.471-48.001 48.001-48.001s48.001 21.471 48.001 48.001v288.001c0 26.497-21.471 48.001-48.001 48.001zM512 959.986c-282.753 0-512-229.218-512-511.968 0-282.785 229.247-512 512-512s512 229.215 512 512c0 282.717-229.247 511.968-512 511.968zM512 32.016c-229.759 0-415.998 186.24-415.998 415.998s186.24 416.002 415.998 416.002 415.998-186.24 415.998-415.998-186.24-416.002-415.998-416.002zM592 640.017c-26.497 0-48.001-21.504-48.001-48.001v-288.001c0-26.529 21.504-48.001 48.001-48.001s48.001 21.471 48.001 48.001v288.001c0 26.497-21.504 48.001-48.001 48.001z" />
<glyph unicode="&#xe904;" glyph-name="arrows-6" d="M512 959.986c-282.753 0-512-229.218-512-511.968 0-282.785 229.247-512 512-512s512 229.215 512 512c0 282.717-229.247 511.968-512 511.968zM512 32.016c-229.759 0-415.998 186.24-415.998 415.998s186.24 416.002 415.998 416.002 415.998-186.24 415.998-415.998-186.24-416.002-415.998-416.002zM719.038 471.601l-293.023 163.168c-21.342 13.023-42.338 2.527-42.338-23.361v-327.070c0-25.856 20.992-36.417 42.338-23.329l292.544 160.766c27.138 15.457 17.251 40.387 0.48 49.826z" />
<glyph unicode="&#xe905;" d="M792.106 132.636c-8.28 0-14.994 6.71-14.994 14.994v743.082c0 5.818 3.366 11.114 8.636 13.58 5.274 2.462 11.492 1.66 15.958-2.066l216.9-180.88c6.36-5.302 7.214-14.758 1.914-21.116-5.304-6.36-14.76-7.212-21.116-1.912l-192.304 160.37v-711.056c-0.002-8.284-6.714-14.996-14.994-14.996z" />
<glyph unicode="&#xe906;" d="M806.14 129.116c0-76.667-62.151-138.818-138.818-138.818s-138.818 62.151-138.818 138.818c0 76.667 62.151 138.818 138.818 138.818s138.818-62.151 138.818-138.818z" />
<glyph unicode="&#xe907;" d="M806.128 129.11c0-76.646-62.152-138.798-138.818-138.798-11.514 0-22.73 1.4-33.426 4.078 60.532 14.934 105.392 69.588 105.392 134.72s-44.86 119.806-105.392 134.74c10.696 2.678 21.91 4.078 33.426 4.078 76.666 0 138.818-62.152 138.818-138.818z" />
<glyph unicode="&#xe908;" d="M110.386 685.23h579.748c8.28 0 14.994 6.71 14.994 14.994 0 8.282-6.712 14.994-14.994 14.994h-579.748c-8.28 0-14.994-6.71-14.994-14.994 0.002-8.282 6.714-14.994 14.994-14.994z" />
<glyph unicode="&#xe909;" d="M690.136 571.554h-579.75c-8.28 0-14.994-6.71-14.994-14.994 0-8.282 6.714-14.994 14.994-14.994h579.748c8.28 0 14.994 6.71 14.994 14.994 0 8.282-6.712 14.994-14.992 14.994z" />
<glyph unicode="&#xe90a;" d="M690.136 427.89h-579.75c-8.28 0-14.994-6.71-14.994-14.994s6.714-14.994 14.994-14.994h579.748c8.28 0 14.994 6.71 14.994 14.994s-6.712 14.994-14.992 14.994z" />
<glyph unicode="&#xe90b;" d="M483.164 284.226h-372.778c-8.28 0-14.994-6.71-14.994-14.994s6.714-14.994 14.994-14.994h372.778c8.28 0 14.994 6.71 14.994 14.994s-6.712 14.994-14.994 14.994z" />
<glyph unicode="&#xe90c;" d="M435.486 140.562h-325.1c-8.28 0-14.994-6.71-14.994-14.994 0-8.282 6.714-14.994 14.994-14.994h325.098c8.28 0 14.994 6.71 14.994 14.994s-6.712 14.994-14.992 14.994z" />
<glyph unicode="&#xe90d;" d="M43.092 700.22c0-11.853-9.646-21.462-21.546-21.462s-21.546 9.609-21.546 21.462c0 11.853 9.646 21.462 21.546 21.462s21.546-9.609 21.546-21.462z" />
<glyph unicode="&#xe90e;" d="M43.092 555.246c0-11.853-9.646-21.462-21.546-21.462s-21.546 9.609-21.546 21.462c0 11.853 9.646 21.462 21.546 21.462s21.546-9.609 21.546-21.462z" />
<glyph unicode="&#xe90f;" d="M43.092 407.592c0-11.853-9.646-21.462-21.546-21.462s-21.546 9.609-21.546 21.462c0 11.853 9.646 21.462 21.546 21.462s21.546-9.609 21.546-21.462z" />
<glyph unicode="&#xe910;" d="M43.092 267.954c0-11.853-9.646-21.462-21.546-21.462s-21.546 9.609-21.546 21.462c0 11.853 9.646 21.462 21.546 21.462s21.546-9.609 21.546-21.462z" />
<glyph unicode="&#xe911;" d="M43.092 125.658c0-11.853-9.646-21.462-21.546-21.462s-21.546 9.609-21.546 21.462c0 11.853 9.646 21.462 21.546 21.462s21.546-9.609 21.546-21.462z" />
<glyph unicode="&#xe912;" glyph-name="social" d="M689.435 359.231l-2.618 1.183c-6.251 2.844-12.547 5.527-18.966 8.038-7.001 2.805-14.105 5.401-21.312 7.831-5.692 1.868-11.425 3.613-17.221 5.317-8.827 2.553-17.741 4.861-26.92 6.897-3.116 0.643-6.293 1.267-9.451 1.829l-2.159 0.417c-5.42 1.060-10.863 1.994-16.367 2.805l-1.577 0.249c-0.061 0-0.103 0.042-0.165 0.042l-1.577 0.207c-4.57 0.685-9.118 1.328-13.856 1.868l-16.118 1.328c-19.816 1.309-40.236 1.267-59.823-0.165l-5.711-0.478-2.66-0.207-6.668-0.601c-6.128-0.643-12.214-1.496-18.3-2.473l-1.787-0.249c-4.153-0.685-8.31-1.454-12.401-2.224-4.548-0.811-9.037-1.703-13.523-2.679-8.681-1.952-17.305-4.176-25.653-6.606-6.648-1.91-13.21-4.008-19.38-6.128l-4.279-1.538c-13.087-4.632-26.089-9.948-38.678-15.785l-3.365-1.6-0.061-0.084c-147.211-70.459-242.141-220.58-242.141-383.473 0-3.74 0.249-7.414 0.478-11.112l1.102-25.84h847.409l1.141 25.55c0.249 3.782 0.478 7.54 0.478 11.403 0 165.492-97.234 316.941-247.871 386.279zM128.255-22.455c1.787 146.255 88.262 280.422 220.059 342.219l4.237 1.661 0.498 0.478c10.323 4.716 20.979 9.014 31.781 12.815l3.426 1.225c5.879 2.036 11.736 3.904 17.822 5.63 7.582 2.224 15.31 4.218 23.058 5.96 4.008 0.85 8.019 1.661 12.153 2.431 3.281 0.601 6.542 1.225 9.845 1.745l1.619 0.291c5.941 0.934 11.904 1.787 17.844 2.431l13.584 1.183c17.78 1.309 34.793 1.496 55.398 0l13.21-1.102c3.261-0.375 6.522-0.811 10.491-1.37l4.758-0.685c4.964-0.727 9.929-1.577 14.913-2.515l2.327-0.436c2.805-0.52 5.588-1.060 8.226-1.619 8.184-1.787 16.222-3.904 24.199-6.212 5.275-1.538 10.511-3.116 15.621-4.819 6.48-2.159 12.88-4.509 19.215-7.020 6.086-2.389 12.088-4.945 18.029-7.666l1.037-0.478c134.791-61.839 222.322-196.442 224.109-344.11l-767.457-0.036zM409.323 450.628c3.116-1.309 6.335-2.45 9.554-3.594l6.752-2.45c2.595-0.995 5.213-1.975 7.873-2.805 24.761-7.789 50.663-11.797 77.001-12.007l2.098-0.042c9.037 0 18.093 0.478 26.775 1.37 2.99 0.291 5.899 0.769 8.827 1.267l6.503 0.976c3.655 0.478 7.311 1.018 11.135 1.765 2.618 0.54 5.152 1.225 7.686 1.91l7.104 1.807c3.51 0.85 7.020 1.703 10.491 2.783 2.159 0.685 4.279 1.474 6.377 2.266l5.711 2.056c4.072 1.412 8.184 2.867 12.298 4.59 1.6 0.685 3.158 1.432 4.693 2.182l1.849 0.915c5.63 2.515 11.238 5.091 16.804 8.080l3.613 2.159c6.231 3.533 12.444 7.188 18.736 11.487 3.261 2.201 6.377 4.674 9.451 7.124l10.637 8.268c61.154 50.621 96.3 124.904 96.3 201.947l0.126 2.201c0 146.193-118.94 265.114-265.134 265.114-139.545 0-255.641-109.115-264.303-248.414l-0.229-3.449c-0.333-4.383-0.601-8.765-0.601-13.252-0.042-106.781 63.501-202.645 161.875-244.251zM289.468 705.251l0.249 3.74c7.311 117.467 105.188 209.465 222.842 209.465 123.304 0 223.589-100.288 223.695-221.679l-0.126-2.182c-0.084-66.513-29.745-129.141-81.571-172.16l-9.868-7.521c-2.201-1.787-4.425-3.571-7.188-5.485-4.984-3.387-10.262-6.438-15.621-9.473l-2.97-1.807c-4.486-2.411-9.202-4.548-14.105-6.729l-5.504-2.66c-3.158-1.309-6.48-2.45-9.764-3.594l-6.855-2.473c-1.328-0.498-2.679-1.037-3.988-1.432-2.553-0.789-5.171-1.393-7.77-2.036l-8.287-2.12c-1.787-0.478-3.552-0.976-5.129-1.309-2.763-0.54-5.588-0.915-8.39-1.309l-7.893-1.183c-1.91-0.333-3.824-0.666-5.963-0.873-6.917-0.727-13.875-1.122-20.937-1.183l-1.994 0.019c-22.744 0.019-45.075 3.407-66.429 10.094-1.849 0.582-3.655 1.309-5.462 1.994l-7.809 2.844c-2.431 0.853-4.838 1.684-7.166 2.66-82.922 35.071-136.517 115.961-136.517 206.006 0 3.51 0.271 6.959 0.52 10.385z" />
<glyph unicode="&#xe913;" glyph-name="trophy" d="M1023.964 764.598c-1.020 86.91-45.496 134.776-125.238 134.776-30.864 0-60.604-7.184-80.046-13.178 1.936 35.524 1.966 57.452 1.966 58.542l0.002 15.208h-617.282v-15.206c0-0.52 0.052-22.794 2.010-58.562-19.44 5.998-49.208 13.196-80.102 13.196-79.74 0-124.218-47.864-125.238-134.776-1.004-85.5 18.496-161.608 57.954-226.214 38.74-63.43 88.256-101.652 122.974-122.542 55.606-33.464 111.18-40.488 148.012-40.488 9.080 0 17.828 0.428 26.010 1.272 0.542 0.056 1.044 0.12 1.574 0.178 17.808-19.178 37.006-34.54 57.52-45.956 15.122-8.414 25.64-23.088 29.244-39.954-20.39-6.346-35.236-25.396-35.236-47.846 0-22.954 15.526-42.34 36.62-48.24v-63.82h-82.284v-66.602h-81.2v-128.334h461.562v128.334h-81.2v66.602h-82.284v63.82c21.096 5.902 36.622 25.286 36.622 48.24 0 22.452-14.846 41.5-35.236 47.846 3.604 16.866 14.12 31.538 29.244 39.954 20.464 11.386 39.794 26.832 57.558 45.948 6.294-0.698 15.732-1.44 27.532-1.44 0.004 0 0.002 0 0.008 0 36.828 0 92.4 7.028 148.002 40.488 34.716 20.892 84.234 59.112 122.974 122.542 39.464 64.604 58.962 140.714 57.958 226.212zM789.984 929.534c-0.136-5.562-0.352-12.554-0.684-20.738h-554.526c-0.344 8.182-0.574 15.184-0.722 20.738h555.932zM810.668 789.908c20.604 6.858 47.308 13.774 71.23 13.774 20.058 0 34.5-4.9 42.926-14.564 9.684-11.108 12.806-29.768 9.274-55.468-14.706-107.052-61.124-190.616-130.708-235.294-24.238-15.564-50.342-21.994-72.218-24.278 46.274 97.262 68.67 219.294 79.496 315.83zM228.99 683.982c14.958-80.23 35.61-149.126 61.386-204.772 0.798-1.728 1.61-3.43 2.418-5.132-21.868 2.29-47.956 8.718-72.184 24.274-69.582 44.68-116.002 128.242-130.708 235.294-3.53 25.702-0.41 44.364 9.276 55.468 8.426 9.664 22.87 14.562 42.926 14.562 23.942 0 50.67-6.926 71.282-13.788 3.682-32.924 8.716-68.962 15.604-105.906zM328.976 405.766c-32.976 0-82.706 6.27-132.328 36.132-50.75 30.54-168.54 123.088-166.2 322.342 0.828 70.466 31.846 104.72 94.826 104.72 33.682 0 66.948-10.154 82.154-15.51 0.758-10.202 1.608-20.434 2.548-30.624-20.67 6.072-45.024 11.268-67.872 11.268-29.236 0-51.39-8.406-65.85-24.986-15.718-18.026-21.264-44.806-16.484-79.596 8.188-59.602 25.3-112.282 50.862-156.574 24.402-42.284 55.876-75.988 93.544-100.172 36.792-23.626 76.586-29.584 104.972-30.154 0.096-0.168 0.194-0.328 0.29-0.494 1.556-2.726 3.128-5.406 4.716-8.052 0.494-0.826 0.992-1.646 1.49-2.464 1.514-2.488 3.040-4.952 4.582-7.366 0.58-0.908 1.168-1.794 1.752-2.694 1.050-1.614 2.106-3.214 3.17-4.796 1.028-1.53 2.060-3.044 3.098-4.542 1.018-1.466 2.038-2.924 3.066-4.362 0.482-0.676 0.956-1.378 1.438-2.046-1.224-0.020-2.482-0.030-3.774-0.030zM712.376 33.97v-67.506h-400.736v67.506h400.736zM579.306 100.572h51.868v-36.188h-238.334v36.188h186.466zM475.122 130.986v61.964h73.77v-61.964h-73.77zM585.514 243.048c0-10.854-8.832-19.684-19.684-19.684h-107.644c-10.854 0-19.684 8.83-19.684 19.684s8.83 19.684 19.684 19.684h107.644c10.854 0 19.684-8.83 19.684-19.684zM661.582 416.896c-0.168-0.218-0.336-0.436-0.504-0.654-1.496-1.936-3.004-3.824-4.52-5.686-0.372-0.454-0.738-0.916-1.112-1.368-1.666-2.024-3.346-4.004-5.034-5.936-0.082-0.092-0.158-0.188-0.24-0.28-16.958-19.346-35.47-34.668-55.024-45.548-24.102-13.408-40.49-37.222-44.998-64.278h-76.284c-4.51 27.058-20.898 50.87-45 64.278-18.872 10.498-35.916 24.532-51.314 41.302l-3.72 4.244c-15.12 17.244-29.372 38.136-42.358 62.090l-3.978 7.342c-65.394 126.354-85.174 308.976-91.138 405.982h551.41c-0.254-4.22-0.532-8.578-0.84-13.104-0.014-0.21-0.030-0.426-0.044-0.636-0.336-4.904-0.696-9.822-1.078-14.744-0.010-0.144-0.022-0.288-0.032-0.434-1.216-15.6-2.656-31.258-4.298-46.73l-0.994-9.356c-11.050-99.056-34.388-225.25-83.602-320.306l-4.346-8.012c-9.67-17.832-20.042-33.964-30.952-48.166zM827.354 441.898c-49.626-29.864-99.346-36.132-132.32-36.132-0.002 0-0.006 0-0.008 0-1.294 0-2.552 0.010-3.778 0.030 0.020 0.028 0.040 0.058 0.060 0.086 1.974 2.724 3.918 5.488 5.832 8.29 0.234 0.342 0.464 0.692 0.698 1.034 1.618 2.384 3.212 4.8 4.788 7.24 0.406 0.626 0.812 1.254 1.214 1.884 1.744 2.738 3.47 5.494 5.162 8.298 0.266 0.438 0.524 0.888 0.788 1.33 1.386 2.316 2.756 4.654 4.108 7.014 0.316 0.552 0.642 1.080 0.96 1.636 28.386 0.57 68.18 6.528 104.972 30.154 37.668 24.188 69.142 57.892 93.544 100.172 25.56 44.292 42.672 96.972 50.862 156.574 4.776 34.792-0.768 61.572-16.484 79.596-14.458 16.582-36.614 24.988-65.85 24.988-22.846 0-47.204-5.192-67.872-11.266 0.958 10.39 1.78 20.356 2.484 29.828 0.020 0.264 0.042 0.53 0.062 0.792 15.21 5.358 48.474 15.51 82.154 15.51 62.98 0 93.998-34.254 94.828-104.716 2.332-199.254-115.454-291.8-166.204-322.342zM384.712 467.526l-25.4-16.734c8.672-13.166 17.992-25.128 27.702-35.552l22.256 20.732c-8.554 9.182-16.816 19.8-24.558 31.554zM319.432 636.156l-29.652-6.764c14.584-63.93 34.054-117.598 57.866-159.512l26.444 15.024c-22.344 39.33-40.734 90.218-54.658 151.252zM887.332 292.982l-0.022 30.414-25.674-0.016-0.018 25.674-30.414-0.020 0.018-25.676-25.674-0.018 0.020-30.414 25.674 0.018 0.018-25.672 30.414 0.020-0.018 25.674zM225.57 135.050l-0.032 30.414-21.544-0.022-0.022 21.546-30.414-0.032 0.022-21.544-21.548-0.022 0.034-30.414 21.544 0.022 0.022-21.548 30.414 0.032-0.022 21.546zM97.69 383.678h28.69v-30.414h-28.69v30.414zM282.078 293.694h28.69v-30.414h-28.69v30.414zM744.508 202.19h28.69v-30.414h-28.69v30.414z" />
<glyph unicode="&#xe914;" glyph-name="shuffle" d="M1024 184.66l-213.188 213.292v-169.388h-20.87c-97.532 0-160.406 57.504-217.396 137.85-15.712-25.65-32.28-52.318-50.226-78.774 64.658-82.104 146.162-146.848 267.62-146.848h20.87v-169.372l213.19 213.24zM1024 711.29l-213.188 213.29v-169.39h-20.87c-185.526 0-277.834-151.048-359.274-284.316-79.46-130.018-148.080-242.31-284.382-242.31h-146.286v-87.772h146.286c185.526 0 277.834 151.048 359.274 284.316 79.46 130.022 148.080 242.314 284.382 242.314h20.87v-169.372l213.188 213.24zM146.286 755.192h-146.286v-87.772h146.286c97.532 0 160.406-57.504 217.396-137.85 15.712 25.65 32.28 52.318 50.226 78.774-64.66 82.108-146.164 146.848-267.622 146.848z" />
<glyph unicode="&#xe915;" glyph-name="circle" d="M512.432 576.851c-0.064 2.11-0.735 4.156-1.279 6.234-0.512 2.078-0.703 4.22-1.662 6.138-0.128 0.288-0.096 0.639-0.256 0.927-0.671 1.407-1.918 2.302-2.781 3.549-1.343 1.95-2.558 3.9-4.316 5.499-1.471 1.343-3.229 2.206-4.827 3.293-1.822 1.119-3.485 2.334-5.499 3.101-2.11 0.767-4.316 0.959-6.522 1.311-1.598 0.256-3.005 0.927-4.667 0.927-0.384 0-0.671-0.192-0.991-0.192-2.046-0.064-4.060-0.767-6.138-1.247-2.078-0.512-4.284-0.767-6.17-1.694-0.32-0.128-0.671-0.096-0.927-0.256l-255.72-127.876c-10.869-5.435-17.679-16.496-17.679-28.644 0-12.116 6.809-23.178 17.679-28.612l255.72-127.876c0.288-0.128 0.607-0.064 0.831-0.224 4.092-1.918 8.504-3.101 13.203-3.165 0.064 0 0.16 0 0.224 0h0.032c0.032 0 0.032 0 0.032 0 3.772 0 7.417 0.863 10.965 2.142 0.991 0.416 1.918 0.767 2.845 1.215 2.717 1.343 5.211 3.069 7.481 5.051 0.512 0.48 1.055 0.735 1.566 1.247 2.174 2.238 4.22 4.859 5.722 7.928 0.16 0.32 0.128 0.671 0.256 0.863 0.895 1.982 1.151 4.060 1.662 6.106 0.543 2.11 1.215 4.156 1.279 6.266 0 0.352 0.224 0.671 0.224 0.959v76.118l209.461-104.699c0.352-0.128 0.671-0.064 0.831-0.224 4.092-1.918 8.536-3.101 13.235-3.165 0.064 0 0.16 0 0.224 0s0.064 0 0.064 0c3.772 0 7.385 0.863 10.933 2.142 0.991 0.416 1.982 0.767 2.909 1.215 2.685 1.343 5.147 3.069 7.449 5.051 0.543 0.48 1.023 0.735 1.566 1.247 2.142 2.238 4.188 4.859 5.722 7.928 0.192 0.32 0.128 0.671 0.256 0.863 0.895 1.982 1.183 4.060 1.726 6.106 0.512 2.11 1.151 4.156 1.215 6.234 0 0.384 0.224 0.671 0.224 0.991v255.752c0 0.352-0.224 0.639-0.224 0.959-0.064 2.11-0.703 4.156-1.215 6.234-0.543 2.078-0.703 4.22-1.726 6.138-0.128 0.288-0.064 0.639-0.256 0.927-0.671 1.407-1.918 2.27-2.749 3.517-1.407 1.982-2.558 3.932-4.348 5.531-1.503 1.343-3.229 2.206-4.763 3.261-1.854 1.151-3.549 2.366-5.595 3.133-2.078 0.767-4.316 0.959-6.458 1.311-1.598 0.256-3.037 0.927-4.667 0.927-0.352 0-0.671-0.192-0.991-0.192-2.014-0.064-4.060-0.767-6.138-1.247-2.014-0.512-4.252-0.767-6.138-1.694-0.288-0.128-0.671-0.096-0.927-0.256l-209.461-104.731v76.15c-0.256 0.863-0.448 1.151-0.448 1.503zM448.685 371.898l-152.268 76.118 152.3 76.182-0.032-152.3zM704.406 524.134v-152.332l-152.3 76.118 152.3 76.214zM508.34 960c-251.021 0-464.606-178.036-507.796-423.334-3.069-17.391 8.664-33.951 26.151-36.988 17.423-2.909 34.175 8.6 37.276 25.991 37.787 214.608 224.678 370.393 444.37 370.393 248.783 0 451.179-200.989 451.179-448.078s-202.364-448.078-451.179-448.078c-219.691 0-406.582 155.785-444.274 370.393-3.133 17.423-19.789 28.996-37.276 25.991-17.487-3.101-29.22-19.597-26.151-36.988 43.19-245.298 256.711-423.334 507.764-423.334 284.333 0 515.533 229.761 515.533 512.016-0.032 282.35-231.296 512.016-515.597 512.016z" />
<glyph unicode="&#xe916;" glyph-name="arrows-5" d="M766.849 288.16c17.71 0 31.968 14.29 31.968 31.968v255.744c0 17.678-14.258 31.968-31.968 31.968-17.678 0-31.968-14.29-31.968-31.968v-76.148l-209.455 104.727c-0.32 0.16-0.671 0.128-0.927 0.256-1.95 0.895-4.124 1.183-6.202 1.694-2.046 0.48-4.060 1.183-6.106 1.247-0.352 0-0.671 0.192-0.991 0.192-1.662 0-3.069-0.671-4.635-0.927-2.238-0.352-4.476-0.543-6.553-1.311-1.982-0.735-3.644-1.95-5.403-3.069-1.726-1.055-3.453-1.95-4.955-3.325-1.726-1.566-2.909-3.516-4.252-5.435-0.863-1.247-2.078-2.174-2.813-3.58-0.16-0.32-0.128-0.671-0.256-0.927-0.895-1.95-1.151-4.060-1.662-6.138-0.543-2.078-1.215-4.124-1.279-6.234 0-0.352-0.224-0.639-0.224-0.959v-76.148l-209.487 104.727c-0.32 0.16-0.671 0.128-0.927 0.256-1.95 0.895-4.092 1.183-6.17 1.694-2.078 0.48-4.092 1.183-6.138 1.247-0.352 0-0.671 0.192-0.991 0.192-1.662 0-3.069-0.671-4.667-0.927-2.206-0.352-4.412-0.543-6.521-1.311-1.982-0.735-3.676-1.982-5.499-3.101-1.63-1.055-3.357-1.95-4.827-3.293-1.726-1.598-2.973-3.548-4.316-5.499-0.863-1.247-2.078-2.142-2.781-3.548-0.16-0.32-0.128-0.671-0.256-0.927-0.895-1.95-1.151-4.060-1.662-6.138s-1.215-4.124-1.279-6.234c0-0.352-0.224-0.639-0.224-0.959v-255.744c0-0.32 0.224-0.671 0.224-0.927 0.064-2.11 0.767-4.124 1.279-6.234 0.511-2.014 0.703-4.188 1.662-6.106 0.128-0.32 0.096-0.639 0.256-0.895 1.502-3.101 3.485-5.626 5.722-7.928 0.511-0.543 1.055-0.703 1.566-1.247 2.27-2.014 4.763-3.644 7.481-5.019 0.927-0.48 1.854-0.799 2.845-1.183 3.485-1.311 7.193-2.174 10.965-2.174h0.064c0.064 0 0.16 0 0.224 0 4.699 0.064 9.111 1.247 13.203 3.133 0.288 0.192 0.607 0.128 0.831 0.256l209.487 104.695v-76.116c0-0.384 0.224-0.671 0.224-0.991 0.064-2.11 0.735-4.124 1.279-6.234 0.511-2.014 0.703-4.188 1.662-6.074 0.128-0.352 0.096-0.671 0.256-0.927 1.502-3.005 3.485-5.626 5.722-7.928 0.511-0.511 1.055-0.703 1.566-1.247 2.27-2.014 4.763-3.644 7.481-5.019 0.927-0.48 1.854-0.799 2.845-1.183 3.485-1.311 7.193-2.174 10.965-2.174h0.064c0.096 0 0.16 0 0.224 0 4.699 0.064 9.111 1.247 13.203 3.133 0.288 0.192 0.607 0.128 0.831 0.256l209.455 104.695v-76.116c-0.128-18.19 14.194-32.511 31.84-32.511zM287.361 371.916v152.328l152.328-76.148-152.328-76.18zM543.105 371.916v152.328l152.328-76.148-152.328-76.18zM997.179 396.372c-17.487 3.005-34.11-8.663-37.275-26.022-37.754-214.601-224.543-370.382-444.228-370.382-248.775 0-451.133 200.983-451.133 448.128-0.032 247.017 202.326 447.968 451.101 447.968 219.684 0 406.633-155.78 444.324-370.382 3.101-17.391 19.852-28.899 37.211-25.99 17.614 3.069 29.283 19.596 26.182 36.987-43.125 245.323-256.703 423.321-507.716 423.321-284.26 0-515.516-229.69-515.516-512 0-282.342 231.225-512.032 515.516-512.032 251.045 0 464.591 177.998 507.748 423.321 3.005 17.487-8.727 33.95-26.214 37.083z" />
<glyph unicode="&#xe917;" glyph-name="arrows-4" d="M26.781 499.61c17.63-3.040 34.428 8.575 37.531 25.949 38.107 214.405 226.276 370.002 447.944 370.002 221.188 0 409.325-155.597 447.336-369.97 3.104-17.374 19.87-28.988 37.499-25.981 15.742 2.688 26.845 16.222 26.845 31.42 0 1.824-0.16 3.648-0.544 5.503-43.387 245.025-258.4 422.891-511.648 422.891-252.704 0-467.75-177.866-511.264-422.859-3.040-17.662 8.735-33.916 26.301-36.955zM997.187 396.358c-17.63 3.040-34.428-8.639-37.531-25.981-38.075-214.341-226.244-369.938-447.912-369.938-221.188 0-409.325 155.597-447.336 369.938-3.104 17.374-19.87 28.988-37.499 25.981-17.63-3.072-29.372-19.614-26.365-36.891 43.451-244.993 258.464-422.859 511.712-422.859 252.704 0 467.718 177.866 511.264 422.827 0.384 1.888 0.544 3.744 0.544 5.567-0.064 15.166-11.135 28.604-26.877 31.356zM656.59 154.149c4.671-2.592 9.919-3.84 15.102-3.84 6.143 0 12.382 1.856 17.726 5.439l153.325 103.667c8.895 6.015 14.206 16.126 14.206 26.973 0 10.879-5.343 20.957-14.206 27.005l-153.325 103.731c-9.791 6.623-22.397 7.263-32.764 1.632-10.335-5.663-16.798-16.638-16.798-28.636v-77.814h-63.928c-18.91 0-37.787 4.671-56.089 13.886-15.87 7.903-34.972 1.344-42.747-14.75-7.839-16.030-1.312-35.42 14.526-43.355 27.197-13.662 55.577-20.541 84.341-20.541h63.864v-64.824c-0.096-11.967 6.367-22.941 16.766-28.572zM703.592 329.551l63.768-43.259-63.768-43.131v86.389zM224.612 571.601h31.996c18.878 0 37.691-4.671 55.993-13.822 4.543-2.304 9.375-3.36 14.11-3.36 11.807 0 23.101 6.623 28.668 18.046 7.839 16.030 1.344 35.484-14.462 43.387-27.197 13.662-55.545 20.541-84.341 20.541h-31.996c-17.662 0-31.932-14.494-31.932-32.38 0-17.918 14.302-32.412 31.964-32.412zM842.679 624.522l-153.325 103.667c-9.759 6.623-22.365 7.263-32.764 1.6-10.431-5.631-16.83-16.606-16.83-28.572v-64.824h-63.864c-105.651 0-191.592-87.221-191.592-194.408 0-71.511-57.305-129.68-127.664-129.68h-31.996c-17.662 0-31.932-14.462-31.932-32.38 0-17.982 14.27-32.476 31.932-32.476h31.996c105.619 0 191.528 87.285 191.528 194.44 0 71.479 57.305 129.616 127.728 129.616h63.864v-77.814c0-11.935 6.463-22.941 16.83-28.572 4.671-2.56 9.919-3.808 15.102-3.808 6.143 0 12.382 1.824 17.726 5.439l153.325 103.731c8.895 6.015 14.206 16.126 14.206 26.973s-5.375 21.053-14.27 27.069zM703.592 554.387v86.293l63.768-43.131-63.768-43.163z" />
<glyph unicode="&#xe918;" glyph-name="shapes" d="M383.628 575.636v-255.752c0-17.679 14.29-31.969 31.969-31.969s31.969 14.29 31.969 31.969v255.752c0 17.679-14.29 31.969-31.969 31.969s-31.969-14.29-31.969-31.969zM639.381 319.884v255.752c0 17.679-14.29 31.969-31.969 31.969s-31.969-14.29-31.969-31.969v-255.752c0-17.679 14.29-31.969 31.969-31.969s31.969 14.322 31.969 31.969zM600.698 952.615c-17.647 2.973-33.983-8.664-37.020-25.959-3.037-17.391 8.6-33.983 25.959-37.020 214.672-37.596 370.457-223.176 370.457-441.844 0-218.157-155.785-403.801-370.393-441.3-17.423-3.101-29.028-19.597-25.991-36.988 2.717-15.505 16.272-26.438 31.458-26.438 1.822 0 3.644 0.16 5.531 0.48 245.298 42.87 423.334 255.017 423.334 504.791-0.032 249.231-178.067 461.345-423.334 504.279zM460.322 926.56c-3.037 17.391-19.597 29.028-36.988 25.991-245.298-42.839-423.334-254.953-423.334-504.791 0-249.294 178.036-461.441 423.302-504.311 1.886-0.32 3.74-0.512 5.563-0.512 15.249 0 28.74 10.965 31.458 26.438 3.037 17.391-8.6 33.951-25.959 37.020-214.64 37.564-370.425 223.208-370.425 441.876 0 218.189 155.785 403.801 370.393 441.3 17.391 3.037 29.028 19.597 25.991 36.988z" />
<glyph unicode="&#xe919;" glyph-name="arrows-3" d="M931.467 741.724c-10.036 14.383-30.013 17.963-44.588 7.767-14.415-10.132-17.963-30.077-7.735-44.556 108.003-153.742 108.003-360.351-0.064-514.094-10.164-14.479-6.68-34.392 7.735-44.62 5.625-3.931 12.050-5.817 18.315-5.817 10.004 0 19.977 4.667 26.21 13.584 123.537 175.829 123.537 412.004 0.128 587.736zM236.399 809.358c6.297 0 12.721 1.886 18.283 5.817 152.687 107.172 358.274 107.907 511.537 1.95 14.479-10.004 34.456-6.425 44.461 8.119 10.036 14.511 6.425 34.424-8.119 44.461-175.253 121.14-410.278 120.213-584.604-2.237-14.383-10.132-17.899-30.077-7.767-44.493 6.233-8.854 16.141-13.616 26.21-13.616zM144.92 705.318c10.132 14.447 6.616 34.392-7.799 44.556s-34.392 6.616-44.556-7.767c-123.377-175.733-123.441-411.876-0.128-587.481 6.169-8.854 16.109-13.68 26.146-13.68 6.361 0 12.689 1.95 18.347 5.881 14.383 10.068 17.931 30.013 7.767 44.525-107.875 153.646-107.811 360.255 0.224 513.966zM769.287 80.952c-153.902-108.035-360.607-107.971-514.413 0.064-14.415 10.132-34.392 6.616-44.525-7.767-10.164-14.383-6.68-34.36 7.735-44.556 87.898-61.785 190.979-92.629 293.932-92.629 103.017 0 206.002 30.908 293.9 92.565 14.415 10.164 17.931 30.077 7.799 44.556s-29.949 17.899-44.429 7.767zM687.173 655.2c-114.556 0-207.76-93.204-207.76-207.76 0-79.236-64.597-143.834-143.834-143.834-79.332 0-143.834 64.597-143.834 143.834 0 62.328 39.474 115.355 95.889 135.204v-39.315c0-11.603 6.265-22.31 16.493-27.968 4.794-2.653 10.1-3.995 15.47-3.995 5.881 0 11.73 1.63 16.876 4.858l127.852 79.908c9.365 5.849 15.087 16.077 15.087 27.105s-5.721 21.255-15.087 27.105l-127.852 79.908c-9.813 6.201-22.31 6.457-32.347 0.863-10.228-5.657-16.493-16.365-16.493-27.968v-53.698c-92.757-21.767-159.815-104.231-159.815-202.006 0-114.556 93.204-207.76 207.76-207.76s207.76 93.204 207.76 207.76c0 79.3 64.501 143.834 143.834 143.834 79.236 0 143.834-64.533 143.834-143.834 0-62.616-39.506-115.387-95.889-135.172v39.283c0 11.603-6.297 22.31-16.525 27.968-10.068 5.657-22.598 5.306-32.506-0.831l-127.852-79.908c-9.301-5.881-14.991-16.045-14.991-27.137 0-11.027 5.689-21.255 14.991-27.105l127.852-79.908c5.178-3.26 11.091-4.858 16.972-4.858 5.306 0 10.676 1.342 15.406 3.995 10.164 5.721 16.557 16.397 16.557 27.968v53.794c92.757 21.639 159.815 103.752 159.815 201.911 0.096 114.556-93.108 207.76-207.664 207.76zM351.562 645.452l35.543-22.214-35.543-22.214v44.429zM671.192 249.462l-35.575 22.182 35.575 22.214v-44.397z" />
<glyph unicode="&#xe91a;" glyph-name="arrows-2" d="M716.021-64c-27.771 0-53.878 10.814-73.517 30.453l-407.998 407.994c-19.686 19.686-30.496 45.792-30.496 73.563s10.814 53.878 30.453 73.517l408.041 408.020c19.639 19.639 45.724 30.453 73.517 30.453s53.878-10.814 73.517-30.453c19.661-19.639 30.453-45.746 30.453-73.542s-10.835-53.903-30.453-73.517l-334.524-334.503 334.524-334.503c19.639-19.639 30.453-45.724 30.453-73.517s-10.835-53.878-30.453-73.517c-19.639-19.636-45.767-30.449-73.517-30.449zM266.461 407.859l0.715-0.694 408.020-408.020c21.832-21.832 59.842-21.832 81.674 0 10.929 10.929 16.911 25.416 16.911 40.849s-6.007 29.921-16.911 40.849l-367.195 367.145 367.195 367.17c10.929 10.903 16.911 25.416 16.911 40.849s-6.007 29.942-16.911 40.871c-21.832 21.811-59.838 21.811-81.674 0l-408.045-408.020c-10.903-10.903-16.911-25.416-16.911-40.824-0.022-15.135 5.73-29.342 16.22-40.177z" />
<glyph unicode="&#xe91b;" glyph-name="arrows-1" d="M511.973 139.983c-27.773 0-53.882 10.836-73.523 30.455l-408.053 408.099c-40.529 40.529-40.529 106.495 0 147.024 19.641 19.641 45.749 30.455 73.548 30.455s53.907-10.814 73.523-30.455l334.505-334.552 334.53 334.552c19.641 19.641 45.728 30.455 73.523 30.455s53.882-10.814 73.523-30.455c19.662-19.641 30.455-45.749 30.455-73.523s-10.814-53.882-30.455-73.523l-408.031-408.009c-19.662-19.709-45.796-30.524-73.544-30.524zM103.942 709.804c-15.434 0-29.945-6.008-40.874-16.912-22.528-22.528-22.528-59.174 0-81.68l408.053-408.078c21.629-21.629 59.081-21.906 80.965-0.669l408.743 408.743c10.93 10.93 16.912 25.418 16.912 40.853s-6.008 29.923-16.912 40.853c-21.834 21.812-59.846 21.812-81.68 0l-367.175-367.247-367.178 367.221c-10.93 10.908-25.418 16.916-40.853 16.916z" />
<glyph unicode="&#xe91c;" glyph-name="arrows" d="M746.965 465.564c11.719-11.719 27.035-17.564 42.379-17.564s30.66 5.845 42.379 17.564l149.843 149.815c0.028 0.056 0.056 0.056 0.056 0.056l42.379 42.379-42.351 42.351c0 0-0.056 0.056-0.084 0.084l-139.866 139.866c-23.381 23.409-61.32 23.409-84.757 0-23.438-23.438-23.438-61.376 0-84.785l37.545-37.545h-454.783c-187.331 0-339.703-152.428-339.703-339.731 0-187.331 152.4-339.731 339.703-339.731h599.511c33.133 0 59.943 26.838 59.943 59.971 0 33.105-26.81 59.943-59.943 59.943h-599.511c-121.206 0-219.818 98.64-219.818 219.818s98.612 219.79 219.818 219.79h454.811l-47.521-47.521c-23.466-23.409-23.466-61.348-0.028-84.757z" />
<glyph unicode="&#xe91d;" glyph-name="close-2" d="M512 960c-136.763 0-265.334-53.257-362.037-149.96-199.63-199.627-199.63-524.446-0.006-724.077 96.703-96.706 225.28-149.963 362.043-149.963 136.757 0 265.334 53.257 362.037 149.963 199.63 199.63 199.63 524.449 0 724.077-96.703 96.703-225.28 149.96-362.037 149.96zM742.388 217.616c-9.092-9.089-21.001-13.635-32.914-13.635-11.909 0-23.825 4.546-32.908 13.635l-164.566 164.56-164.563-164.563c-9.092-9.089-21.001-13.635-32.914-13.635-11.909 0-23.825 4.546-32.908 13.635-18.181 18.174-18.181 47.647 0 65.825l164.56 164.563-164.563 164.563c-18.181 18.174-18.181 47.647 0 65.825 18.174 18.174 47.647 18.174 65.825 0l164.563-164.563 164.557 164.563c18.174 18.174 47.647 18.174 65.825 0 18.181-18.174 18.181-47.647 0-65.825l-164.557-164.563 164.563-164.56c18.178-18.178 18.178-47.65 0-65.825z" />
<glyph unicode="&#xe91e;" glyph-name="close-1" d="M657.049 448.41l336.978 336.978c39.962 39.926 39.962 104.711 0 144.641s-104.711 39.962-144.641 0l-336.978-336.981-336.978 336.981c-39.926 39.962-104.711 39.962-144.674 0-39.929-39.926-39.929-104.711 0.033-144.674l336.981-336.945-337.8-337.8c-39.962-39.926-39.962-104.711 0-144.641 19.98-19.98 46.169-29.971 72.319-29.971 26.186 0 52.372 9.991 72.355 29.971l337.764 337.764 336.981-336.945c19.98-19.947 46.133-29.938 72.319-29.938 26.153 0 52.339 9.991 72.319 29.938 39.962 39.926 39.962 104.747 0 144.674l-336.978 336.948z" />
<glyph unicode="&#xe91f;" glyph-name="close" d="M16.399 45.324c-7.288-10.932-10.932-25.509-10.932-36.441 0-14.577 3.644-29.153 10.932-40.085 14.577-21.865 36.441-32.797 61.95-32.797 18.221 0 36.441 7.288 51.018 21.865 54.662 54.662 76.527 131.189 127.544 182.206l156.698 156.698c54.662 54.662 142.121 54.662 196.783 0l32.797-32.797c83.815-83.815 109.324-215.004 193.139-295.174 21.865-21.865 51.018-32.797 76.527-32.797 32.797 0 69.238 14.577 91.103 47.374 10.932 18.221 18.221 40.085 18.221 61.95s-7.288 43.73-18.221 61.95c-69.238 105.68-222.292 123.9-313.395 215.004l-29.153 29.153c-54.662 54.662-54.662 142.121 0 196.783l127.544 127.544c65.594 65.594 174.918 91.103 222.292 171.274 7.288 10.932 10.932 25.509 10.932 36.441 0 14.577-3.644 29.153-10.932 40.085-14.577 21.865-36.441 32.797-61.95 32.797-18.221 0-36.441-7.288-51.018-21.865-65.594-65.594-102.036-153.053-167.63-215.004l-120.256-120.256c-54.662-54.662-142.121-54.662-196.783 0l-138.477 138.477c-61.95 61.95-87.459 163.986-163.986 211.359-21.865 14.577-54.662 14.577-76.527 0s-32.797-36.441-32.797-61.95c0-18.221 7.288-36.441 21.865-51.018 65.594-65.594 153.053-102.036 218.648-167.63l120.256-120.256c54.662-54.662 54.662-142.121 0-196.783l-171.274-171.274c-51.018-54.662-138.477-72.883-174.918-134.833z" />
<glyph unicode="&#xe920;" glyph-name="folder" d="M955.734 891.734h-273.067c-37.683 0-68.266-30.584-68.266-68.266 0 0-8.875-62.602-68.266-68.266h-477.87c-37.681-0.002-68.266-30.587-68.266-68.27v-614.4c0-37.683 30.584-68.268 68.266-68.268h887.467c37.683 0 68.266 30.584 68.266 68.268v750.933c0.002 37.683-30.58 68.268-68.264 68.268zM716.8 345.6h-170.666v-170.666c0-18.773-15.36-34.133-34.133-34.133-18.842 0-34.133 15.36-34.133 34.133v170.666h-170.666c-18.842 0-34.133 15.36-34.133 34.133s15.291 34.133 34.133 34.133h170.666v170.666c0 18.842 15.291 34.133 34.133 34.133 18.773 0 34.133-15.291 34.133-34.133v-170.666h170.666c18.773 0 34.133-15.36 34.133-34.133s-15.36-34.133-34.133-34.133z" />
<glyph unicode="&#xe921;" glyph-name="multimedia" d="M559.061 892.824c-19.21 10.865-41.943 10.51-60.819-0.866-0.905-0.531-1.771-1.161-2.559-1.83l-266.697-225.62h-209.303c-10.884 0-19.682-8.798-19.682-19.682v-373.967c0-5.236 2.067-10.235 5.767-13.916s8.68-5.767 13.916-5.767l208.831 0.098 266.56-244.85c0.984-0.905 2.047-1.693 3.169-2.362 9.684-5.846 20.411-8.778 31.138-8.778 10.176 0.020 20.332 2.637 29.681 7.912 19.663 11.101 31.413 31.374 31.413 54.225v781.158c0 22.851-11.75 43.124-31.413 54.245zM551.109 57.421c0-8.483-4.271-15.943-11.396-19.978-3.051-1.712-10.786-5.019-19.682-0.512l-264.158 242.665v89.673c0 10.884-8.798 19.682-19.682 19.682s-19.682-8.798-19.682-19.682v-78.651l-177.142-0.079v334.602h177.142v-78.73c0-10.884 8.798-19.682 19.682-19.682s19.682 8.798 19.682 19.682v89.28l263.843 223.199c9.074 4.763 16.927 1.378 19.997-0.354 7.125-4.035 11.396-11.495 11.396-19.958v-781.158zM763.621 820.924c-10.294 3.484-21.474-2.027-24.977-12.321-3.484-10.274 2.027-21.474 12.321-24.977 139.765-47.454 233.67-178.382 233.67-325.804 0-147.284-93.728-278.231-233.218-325.824-10.274-3.503-15.785-14.683-12.262-24.997 2.795-8.168 10.432-13.325 18.62-13.325 2.106 0 4.251 0.335 6.357 1.063 155.413 53.005 259.848 198.911 259.848 363.063 0.020 164.329-104.612 310.235-260.36 363.122zM846.858 457.841c0 117.544-78.907 222.451-191.884 255.124-10.491 2.972-21.336-2.992-24.367-13.463-3.011-10.432 2.992-21.355 13.463-24.367 96.228-27.811 163.443-117.17 163.443-217.294s-67.216-189.483-163.443-217.294c-10.451-3.011-16.474-13.935-13.463-24.367 2.5-8.621 10.353-14.23 18.915-14.23 1.811 0 3.641 0.256 5.452 0.768 112.997 32.673 191.884 137.58 191.884 255.124z" />
<glyph unicode="&#xe922;" glyph-name="play-button" d="M997.147 396.372c-17.55 3.005-34.142-8.631-37.275-26.022-37.754-214.601-224.543-370.382-444.26-370.382-248.775 0-451.133 200.983-451.133 448.128-0.032 247.017 202.358 447.968 451.101 447.968 219.716 0 406.633-155.78 444.324-370.382 3.133-17.391 19.852-28.931 37.275-25.99 17.582 3.069 29.283 19.596 26.214 36.987-43.189 245.323-256.767 423.321-507.812 423.321-284.292 0-515.516-229.69-515.516-512 0-282.342 231.225-512.032 515.516-512.032 251.045 0 464.623 177.998 507.748 423.321 3.037 17.487-8.695 33.95-26.182 37.083zM429.586 604.484c-0.32 0.16-0.639 0.128-0.895 0.256-1.982 0.895-4.124 1.183-6.202 1.694-2.078 0.48-4.092 1.183-6.138 1.247-0.352 0-0.671 0.192-0.959 0.192-1.694 0-3.101-0.671-4.667-0.927-2.238-0.352-4.412-0.543-6.553-1.311-1.982-0.735-3.676-1.982-5.467-3.101-1.694-1.055-3.389-1.95-4.859-3.293-1.758-1.598-2.973-3.548-4.316-5.499-0.895-1.247-2.046-2.142-2.781-3.548-0.16-0.32-0.128-0.671-0.256-0.959-0.927-1.918-1.183-3.996-1.662-6.074-0.543-2.11-1.215-4.156-1.279-6.266 0-0.352-0.224-0.639-0.224-0.959v-255.744c0-0.384 0.224-0.671 0.224-0.927 0.064-2.11 0.735-4.188 1.279-6.298 0.511-2.046 0.735-4.188 1.662-6.042 0.128-0.32 0.064-0.671 0.256-0.895 1.471-3.101 3.485-5.626 5.722-7.928 0.511-0.543 1.055-0.767 1.598-1.247 2.238-2.014 4.731-3.708 7.449-5.019 0.927-0.48 1.886-0.863 2.845-1.247 3.485-1.247 7.193-2.11 10.933-2.174 0.032 0 0.032 0 0.032 0h0.064c0.032 0 0.032 0 0.032 0 0.064 0 0.128 0.064 0.192 0.064 4.699 0 9.143 1.183 13.203 3.133 0.288 0.128 0.607 0.064 0.831 0.192l255.904 127.872c10.869 5.435 17.71 16.559 17.71 28.643s-6.841 23.177-17.71 28.611l-255.968 127.552zM447.329 371.916v152.328l152.392-76.148-152.392-76.18z" />
<glyph unicode="&#xe923;" glyph-name="search" d="M991.284 27.298l-243.714 253.474c62.663 74.491 96.997 168.216 96.997 265.788 0 227.967-185.473 413.44-413.44 413.44s-413.44-185.473-413.44-413.44 185.473-413.44 413.44-413.44c85.582 0 167.137 25.813 236.865 74.815l245.565-255.398c10.264-10.66 24.069-16.538 38.863-16.538 14.003 0 27.287 5.339 37.371 15.046 21.427 20.618 22.11 54.808 1.492 76.253zM431.128 852.146c168.504 0 305.586-137.082 305.586-305.586s-137.082-305.586-305.586-305.586-305.586 137.082-305.586 305.586 137.082 305.586 305.586 305.586z" />
</font>
</defs>
</svg>
